#!OML:ASF Y:\EmotionMaleHayes\Project 1\Capture day 1\Session 1\Male1.ASF
:FULLY-SPECIFIED
:DEGREES
896
root 32.9342 16.6022 -15.3402 -333.002 -82.2775 -23.4026
lowerback 12.7293 2.07791 -5.34321
upperback 4.39859 1.80587 -2.16436
thorax -2.60762 0.798 0.485932
lowerneck -21.6553 8.22078 8.90604
upperneck 21.605 11.733 -12.439
head 12.0306 4.43197 -4.10218
rclavicle 2.38542e-015 1.27222e-014
rhumerus -44.3368 20.3213 -93.7531
rradius 39.2128
rwrist -17.0934
rhand -23.2613 -35.5778
rfingers 7.12502
rthumb 3.19073 -65.5337
lclavicle 2.38542e-015 1.27222e-014
lhumerus -41.9949 -23.2371 92.9315
lradius 63.8412
lwrist 34.0591
lhand -28.6702 -22.4641
lfingers 7.12502
lthumb -2.03324 7.50598
rfemur -24.4857 0.531094 5.96865
rtibia 62.1372
rfoot -10.6937 -4.92561
rtoes 3.32581
lfemur -0.641765 -7.9984 -38.8741
ltibia 14.7208
lfoot -19.4286 5.11994
ltoes 30.027
897
root 32.7129 16.6615 -15.3545 -341.825 -80.7971 -14.1753
lowerback 12.5786 1.92341 -6.23086
upperback 4.26503 1.50835 -2.17223
thorax -2.66994 0.655026 1.02017
lowerneck -21.6995 7.77487 8.5304
upperneck 21.6819 11.1855 -12.2775
head 11.9622 4.17342 -4.08429
rclavicle -2.8625e-014 1.11319e-014
rhumerus -46.2061 18.9656 -93.1394
rradius 38.1642
rwrist -15.8324
rhand -22.4411 -35.3111
rfingers 7.12502
rthumb 3.98281 -65.2536
lclavicle -2.8625e-014 1.11319e-014
lhumerus -41.1447 -25.4362 93.2377
lradius 66.4832
lwrist 33.1713
lhand -28.5149 -22.8354
lfingers 7.12502
lthumb -1.8832 7.13606
rfemur -25.842 0.386963 4.93895
rtibia 60.5109
rfoot -11.3313 -6.41732
rtoes -1.2771
lfemur 1.1084 -9.14107 -39.7326
ltibia 13.0811
lfoot -18.7312 4.31938
ltoes 29.8276
898
root 32.4913 16.7032 -15.3604 -344.716 -79.2289 -11.0049
lowerback 12.3341 1.7423 -6.47952
upperback 4.22827 1.27591 -2.01858
thorax -2.56789 0.541608 1.35906
lowerneck -21.7986 7.29131 7.9243
upperneck 21.8264 10.609 -11.9045
head 11.901 3.90403 -3.95151
rclavicle 3.45885e-014 -1.90833e-014
rhumerus -48.0004 18.0517 -92.5502
rradius 37.3502
rwrist -14.5758
rhand -22.3016 -35.0045
rfingers 7.12502
rthumb 4.11752 -64.9444
lclavicle 3.45885e-014 -1.90833e-014
lhumerus -39.9649 -27.3854 93.2664
lradius 68.8904
lwrist 32.182
lhand -28.1582 -23.4978
lfingers 7.12502
lthumb -1.53868 6.47636
rfemur -27.0741 0.604998 4.47099
rtibia 58.0095
rfoot -11.4242 -6.38601
rtoes -0.896458
lfemur 2.80547 -9.30155 -39.6778
ltibia 11.4102
lfoot -17.91 2.62897
ltoes 30.7189
899
root 32.2773 16.7389 -15.3592 -348.191 -77.6447 -7.18636
lowerback 12.1668 1.5518 -6.98953
upperback 4.19698 0.987678 -1.94969
thorax -2.49564 0.398675 1.76053
lowerneck -21.9519 6.94057 7.40437
upperneck 21.8685 10.1969 -11.5821
head 11.8453 3.71071 -3.81679
rclavicle -1.63003e-014 1.43125e-014
rhumerus -49.6734 17.6339 -92.1407
rradius 36.6461
rwrist -14.1739
rhand -21.9572 -35.1837
rfingers 7.12502
rthumb 4.45005 -65.117
lclavicle -1.63003e-014 1.43125e-014
lhumerus -38.4671 -29.2421 93.0281
lradius 71.1873
lwrist 31.1302
lhand -27.5486 -24.4151
lfingers 7.12502
lthumb -0.949931 5.56252
rfemur -28.1799 0.352765 3.56419
rtibia 55.4798
rfoot -11.6332 -5.93783
rtoes -1.08367
lfemur 4.22801 -9.05369 -39.8419
ltibia 9.96898
lfoot -16.9759 0.537724
ltoes 32.5705
900
root 32.06 16.7689 -15.3618 -351.317 -75.8576 -3.7311
lowerback 12.1705 1.32407 -7.61292
upperback 4.12066 0.617568 -1.91289
thorax -2.55026 0.21951 2.1999
lowerneck -22.0486 6.78058 7.2118
upperneck 22.0117 9.98265 -11.344
head 11.8668 3.62247 -3.73525
rclavicle -1.63003e-014 -1.27222e-014
rhumerus -51.7977 17.089 -91.6693
rradius 36.919
rwrist -13.7509
rhand -21.3108 -35.2953
rfingers 7.12502
rthumb 5.07424 -65.2145
lclavicle -1.63003e-014 -1.27222e-014
lhumerus -36.9605 -31.0703 92.6428
lradius 73.502
lwrist 30.1006
lhand -26.8695 -25.4822
lfingers 7.12502
lthumb -0.294095 4.49733
rfemur -28.8688 -0.121254 2.53708
rtibia 52.7199
rfoot -11.9997 -5.90542
rtoes -1.72621
lfemur 5.59064 -8.79741 -40.0437
ltibia 8.79739
lfoot -16.2719 -1.29282
ltoes 34.2607
901
root 31.8363 16.7846 -15.3646 -353.342 -74.2478 -1.39086
lowerback 12.0261 1.13323 -8.20189
upperback 4.07668 0.316403 -1.88064
thorax -2.48849 0.0701274 2.60627
lowerneck -22.1142 6.54655 6.77762
upperneck 22.0592 9.70093 -10.9718
head 11.8176 3.50417 -3.57283
rclavicle -9.54166e-015 -1.74931e-014
rhumerus -53.9439 16.87 -91.4342
rradius 37.1794
rwrist -13.2724
rhand -20.6572 -34.7913
rfingers 7.12502
rthumb 5.70536 -64.6945
lclavicle -9.54166e-015 -1.74931e-014
lhumerus -35.3177 -32.8466 92.0376
lradius 75.746
lwrist 28.9483
lhand -26.7142 -26.1499
lfingers 7.12502
lthumb -0.144088 3.82975
rfemur -29.4411 -0.241409 1.55805
rtibia 49.9107
rfoot -12.6645 -5.78443
rtoes 0.674435
lfemur 6.9049 -8.21734 -40.0668
ltibia 7.66947
lfoot -15.5562 -2.82135
ltoes 35.0616
902
root 31.6131 16.7862 -15.3667 -354.317 -72.7918 -0.129501
lowerback 11.802 0.971764 -8.58477
upperback 4.08548 0.0902477 -1.84942
thorax -2.33048 -0.0472022 2.88476
lowerneck -22.1271 6.24384 6.12775
upperneck 21.8411 9.36647 -10.5732
head 11.6421 3.35721 -3.36903
rclavicle 2.42517e-014 5.56597e-014
rhumerus -55.9974 16.9636 -91.4791
rradius 37.4551
rwrist -12.9269
rhand -20.1935 -33.8837
rfingers 7.12502
rthumb 6.15299 -63.7743
lclavicle 2.42517e-014 5.56597e-014
lhumerus -33.2306 -34.5274 91.0805
lradius 77.7827
lwrist 27.8782
lhand -26.5966 -26.0893
lfingers 7.12502
lthumb -0.030472 3.89045
rfemur -29.9931 -0.215535 0.818271
rtibia 46.2699
rfoot -12.6062 -5.98217
rtoes -1.88075
lfemur 8.15456 -7.20528 -39.7306
ltibia 6.50191
lfoot -14.5228 -4.57174
ltoes 35.2058
903
root 31.3953 16.7792 -15.3721 -354.965 -71.3405 0.837767
lowerback 11.6151 0.793369 -8.94418
upperback 4.11444 -0.157236 -1.81105
thorax -2.16556 -0.17695 3.15859
lowerneck -22.2924 6.06289 5.93127
upperneck 21.7569 9.11789 -10.3903
head 11.5956 3.25181 -3.30755
rclavicle 1.15295e-014 3.18055e-015
rhumerus -57.9825 17.0636 -91.4963
rradius 37.965
rwrist -12.5345
rhand -19.8424 -33.1579
rfingers 7.12502
rthumb 6.49191 -63.0384
lclavicle 1.15295e-014 3.18055e-015
lhumerus -31.0521 -35.8713 89.9217
lradius 79.9192
lwrist 26.7909
lhand -26.6156 -26.2374
lfingers 7.12502
lthumb -0.0488189 3.74237
rfemur -30.4978 -0.248284 0.114218
rtibia 42.7567
rfoot -12.9553 -5.88223
rtoes -6.80427
lfemur 9.17101 -5.843 -39.1692
ltibia 5.64297
lfoot -13.7496 -6.84247
ltoes 36.0374
904
root 31.1791 16.763 -15.3764 -355.436 -69.9159 1.61683
lowerback 11.4405 0.606715 -9.33939
upperback 4.16825 -0.416331 -1.72015
thorax -1.97467 -0.315677 3.507
lowerneck -22.4467 5.90832 5.53742
upperneck 21.5927 8.91924 -10.0212
head 11.5017 3.17884 -3.13318
rclavicle -2.14687e-014 -2.3059e-014
rhumerus -59.9237 17.0408 -91.2729
rradius 38.6456
rwrist -11.7548
rhand -18.9734 -32.9441
rfingers 7.12502
rthumb 7.3308 -62.7971
lclavicle -2.14687e-014 -2.3059e-014
lhumerus -28.7863 -36.9238 88.6712
lradius 82.0325
lwrist 25.8687
lhand -26.4961 -26.6339
lfingers 7.12502
lthumb 0.0666242 3.34583
rfemur -30.9001 -0.189895 -0.604796
rtibia 39.2979
rfoot -13.4128 -5.67205
rtoes -10.4727
lfemur 10.035 -4.11429 -38.4244
ltibia 5.06907
lfoot -13.2203 -9.37468
ltoes 37.3437
